Mono_opsz12.ufo
<glyph name="quotedbl" format="2">
  <advance width="514"/>
  <unicode hex="0022"/>
  <outline>
    <contour>
      <point x="210.0" y="568" type="line" smooth="yes"/>
      <point x="211.0" y="591"/>
      <point x="204.0" y="620"/>
      <point x="170.0" y="620" type="curve" smooth="yes"/>
      <point x="167.0" y="620"/>
      <point x="127.0" y="619"/>
      <point x="130.0" y="570" type="curve" smooth="yes"/>
      <point x="141.0" y="363" type="line" smooth="yes"/>
      <point x="142.0" y="352"/>
      <point x="143.0" y="326"/>
      <point x="170.0" y="326" type="curve" smooth="yes"/>
      <point x="198.0" y="326"/>
      <point x="199.0" y="352"/>
      <point x="200.0" y="365" type="curve" smooth="yes"/>
    </contour>
    <contour>
      <point x="384.0" y="569" type="line" smooth="yes"/>
      <point x="387.0" y="617"/>
      <point x="352.0" y="620"/>
      <point x="344.0" y="620" type="curve" smooth="yes"/>
      <point x="309.0" y="620"/>
      <point x="301.0" y="583"/>
      <point x="303.0" y="579" type="curve"/>
      <point x="314.0" y="366" type="line" smooth="yes"/>
      <point x="315.0" y="352"/>
      <point x="316.0" y="326"/>
      <point x="344.0" y="326" type="curve" smooth="yes"/>
      <point x="371.0" y="326"/>
      <point x="372.0" y="352"/>
      <point x="373.0" y="363" type="curve" smooth="yes"/>
    </contour>
  </outline>
</glyph>
<glyph name="percent" format="2">
  <advance width="514"/>
  <unicode hex="0025"/>
  <outline>
    <contour>
      <point x="420" y="640" type="line" smooth="yes"/>
      <point x="424" y="651"/>
      <point x="426" y="655"/>
      <point x="426" y="661" type="curve" smooth="yes"/>
      <point x="426" y="682"/>
      <point x="409" y="694"/>
      <point x="394" y="694" type="curve" smooth="yes"/>
      <point x="371" y="694"/>
      <point x="364" y="675"/>
      <point x="360" y="665" type="curve" smooth="yes"/>
      <point x="94" y="-29" type="line" smooth="yes"/>
      <point x="90" y="-40"/>
      <point x="88" y="-44"/>
      <point x="88" y="-50" type="curve" smooth="yes"/>
      <point x="88" y="-68"/>
      <point x="103" y="-83"/>
      <point x="121" y="-83" type="curve" smooth="yes"/>
      <point x="143" y="-83"/>
      <point x="150" y="-65"/>
      <point x="154" y="-54" type="curve" smooth="yes"/>
    </contour>
    <contour>
      <point x="480" y="50" type="curve" smooth="yes"/>
      <point x="480" y="125"/>
      <point x="443" y="183"/>
      <point x="394" y="183" type="curve" smooth="yes"/>
      <point x="345" y="183"/>
      <point x="308" y="125"/>
      <point x="308" y="50" type="curve" smooth="yes"/>
      <point x="308" y="-25"/>
      <point x="345" y="-83"/>
      <point x="394" y="-83" type="curve" smooth="yes"/>
      <point x="443" y="-83"/>
      <point x="480" y="-25"/>
    </contour>
    <contour>
      <point x="394" y="-24" type="curve" smooth="yes"/>
      <point x="383" y="-24"/>
      <point x="364" y="3"/>
      <point x="364" y="50" type="curve" smooth="yes"/>
      <point x="364" y="97"/>
      <point x="383" y="124"/>
      <point x="394" y="124" type="curve" smooth="yes"/>
      <point x="405" y="124"/>
      <point x="424" y="97"/>
      <point x="424" y="50" type="curve" smooth="yes"/>
      <point x="424" y="3"/>
      <point x="405" y="-24"/>
    </contour>
    <contour>
      <point x="206" y="560" type="curve" smooth="yes"/>
      <point x="206" y="637"/>
      <point x="168" y="694"/>
      <point x="120" y="694" type="curve" smooth="yes"/>
      <point x="70" y="694"/>
      <point x="34" y="635"/>
      <point x="34" y="561" type="curve" smooth="yes"/>
      <point x="34" y="484"/>
      <point x="72" y="427"/>
      <point x="120" y="427" type="curve" smooth="yes"/>
      <point x="170" y="427"/>
      <point x="206" y="486"/>
    </contour>
    <contour>
      <point x="120" y="486" type="curve" smooth="yes"/>
      <point x="109" y="486"/>
      <point x="90" y="515"/>
      <point x="90" y="560" type="curve" smooth="yes"/>
      <point x="90" y="608"/>
      <point x="109" y="635"/>
      <point x="120" y="635" type="curve" smooth="yes"/>
      <point x="131" y="635"/>
      <point x="150" y="606"/>
      <point x="150" y="561" type="curve" smooth="yes"/>
      <point x="150" y="513"/>
      <point x="131" y="486"/>
    </contour>
  </outline>
</glyph>
<glyph name="ampersand" format="2">
  <advance width="514"/>
  <unicode hex="0026"/>
  <outline>
    <contour>
      <point x="414" y="373" type="line"/>
      <point x="441" y="373" type="line" smooth="yes"/>
      <point x="455" y="373"/>
      <point x="481" y="373"/>
      <point x="481" y="402" type="curve" smooth="yes"/>
      <point x="481" y="431"/>
      <point x="455" y="431"/>
      <point x="441" y="431" type="curve" smooth="yes"/>
      <point x="354" y="431" type="line" smooth="yes"/>
      <point x="341" y="431"/>
      <point x="313" y="431"/>
      <point x="313" y="402" type="curve" smooth="yes"/>
      <point x="313" y="373"/>
      <point x="341" y="373"/>
      <point x="354" y="373" type="curve"/>
      <point x="318" y="275"/>
      <point x="291" y="203"/>
      <point x="267" y="159" type="curve"/>
      <point x="215" y="248"/>
      <point x="206" y="269"/>
      <point x="194" y="299" type="curve"/>
      <point x="245" y="358"/>
      <point x="295" y="416"/>
      <point x="295" y="488" type="curve" smooth="yes"/>
      <point x="295" y="549"/>
      <point x="273" y="623"/>
      <point x="204" y="623" type="curve" smooth="yes"/>
      <point x="152" y="623"/>
      <point x="101" y="575"/>
      <point x="101" y="480" type="curve" smooth="yes"/>
      <point x="101" y="433"/>
      <point x="109" y="375"/>
      <point x="129" y="313" type="curve"/>
      <point x="68" y="243" type="line" smooth="yes"/>
      <point x="48" y="220"/>
      <point x="28" y="187"/>
      <point x="28" y="134" type="curve" smooth="yes"/>
      <point x="28" y="61"/>
      <point x="72" y="-12"/>
      <point x="148" y="-12" type="curve" smooth="yes"/>
      <point x="203" y="-12"/>
      <point x="246" y="26"/>
      <point x="270" y="57" type="curve"/>
      <point x="302" y="18"/>
      <point x="342" y="-12"/>
      <point x="385" y="-12" type="curve" smooth="yes"/>
      <point x="451" y="-12"/>
      <point x="477" y="58"/>
      <point x="477" y="105" type="curve" smooth="yes"/>
      <point x="477" y="137"/>
      <point x="452" y="138"/>
      <point x="449" y="138" type="curve" smooth="yes"/>
      <point x="445" y="138"/>
      <point x="423" y="138"/>
      <point x="421" y="107" type="curve" smooth="yes"/>
      <point x="419" y="78"/>
      <point x="410" y="46"/>
      <point x="384" y="46" type="curve" smooth="yes"/>
      <point x="348" y="46"/>
      <point x="304" y="103"/>
      <point x="304" y="107" type="curve" smooth="yes"/>
      <point x="304" y="109"/>
      <point x="307" y="114"/>
      <point x="309" y="119" type="curve"/>
      <point x="330" y="156"/>
      <point x="348" y="196"/>
      <point x="363" y="236" type="curve" smooth="yes"/>
    </contour>
    <contour>
      <point x="173" y="364" type="curve"/>
      <point x="157" y="422"/>
      <point x="157" y="478"/>
      <point x="157" y="479" type="curve" smooth="yes"/>
      <point x="157" y="536"/>
      <point x="180" y="565"/>
      <point x="204" y="565" type="curve" smooth="yes"/>
      <point x="239" y="565"/>
      <point x="239" y="489"/>
      <point x="239" y="488" type="curve" smooth="yes"/>
      <point x="239" y="465"/>
      <point x="232" y="432"/>
    </contour>
    <contour>
      <point x="154" y="252" type="curve"/>
      <point x="192" y="169"/>
      <point x="231" y="112"/>
      <point x="235" y="106" type="curve"/>
      <point x="215" y="77"/>
      <point x="183" y="46"/>
      <point x="149" y="46" type="curve" smooth="yes"/>
      <point x="103" y="46"/>
      <point x="93" y="109"/>
      <point x="93" y="137" type="curve" smooth="yes"/>
      <point x="93" y="188"/>
      <point x="110" y="205"/>
    </contour>
  </outline>
</glyph>
<glyph name="quotesingle" format="2">
  <advance width="514"/>
  <unicode hex="0027"/>
  <outline>
    <contour>
      <point x="297.0" y="566" type="line" smooth="yes"/>
      <point x="298.0" y="580"/>
      <point x="298.0" y="620"/>
      <point x="257.0" y="620" type="curve" smooth="yes"/>
      <point x="219.0" y="620"/>
      <point x="216.0" y="584"/>
      <point x="217.0" y="566" type="curve" smooth="yes"/>
      <point x="227.0" y="362" type="line" smooth="yes"/>
      <point x="228.0" y="341"/>
      <point x="237.0" y="326"/>
      <point x="257.0" y="326" type="curve" smooth="yes"/>
      <point x="269.0" y="326"/>
      <point x="286.0" y="332"/>
      <point x="287.0" y="361" type="curve" smooth="yes"/>
    </contour>
  </outline>
</glyph>
<glyph name="parenleft" format="2">
  <advance width="514"/>
  <unicode hex="0028"/>
  <outline>
    <contour>
      <point x="428" y="-57" type="curve" smooth="yes"/>
      <point x="428" y="-44"/>
      <point x="421" y="-40"/>
      <point x="407" y="-30" type="curve" smooth="yes"/>
      <point x="269" y="65"/>
      <point x="235" y="208"/>
      <point x="235" y="305" type="curve" smooth="yes"/>
      <point x="235" y="400"/>
      <point x="267" y="544"/>
      <point x="407" y="641" type="curve" smooth="yes"/>
      <point x="421" y="651"/>
      <point x="428" y="655"/>
      <point x="428" y="668" type="curve" smooth="yes"/>
      <point x="428" y="678"/>
      <point x="423" y="694"/>
      <point x="399" y="694" type="curve" smooth="yes"/>
      <point x="374" y="694"/>
      <point x="300" y="636"/>
      <point x="254" y="571" type="curve" smooth="yes"/>
      <point x="198" y="493"/>
      <point x="170" y="400"/>
      <point x="170" y="305" type="curve" smooth="yes"/>
      <point x="170" y="194"/>
      <point x="210" y="101"/>
      <point x="252" y="42" type="curve" smooth="yes"/>
      <point x="298" y="-22"/>
      <point x="371" y="-83"/>
      <point x="399" y="-83" type="curve" smooth="yes"/>
      <point x="423" y="-83"/>
      <point x="428" y="-66"/>
    </contour>
  </outline>
</glyph>
<glyph name="parenright" format="2">
  <advance width="514"/>
  <unicode hex="0029"/>
  <outline>
    <contour>
      <point x="344" y="305" type="curve" smooth="yes"/>
      <point x="344" y="383"/>
      <point x="325" y="484"/>
      <point x="253" y="581" type="curve" smooth="yes"/>
      <point x="219" y="627"/>
      <point x="145" y="694"/>
      <point x="115" y="694" type="curve" smooth="yes"/>
      <point x="92" y="694"/>
      <point x="86" y="677"/>
      <point x="86" y="668" type="curve" smooth="yes"/>
      <point x="86" y="656"/>
      <point x="93" y="651"/>
      <point x="111" y="639" type="curve" smooth="yes"/>
      <point x="233" y="553"/>
      <point x="279" y="419"/>
      <point x="279" y="306" type="curve" smooth="yes"/>
      <point x="279" y="216"/>
      <point x="250" y="69"/>
      <point x="107" y="-30" type="curve" smooth="yes"/>
      <point x="94" y="-39"/>
      <point x="86" y="-44"/>
      <point x="86" y="-57" type="curve" smooth="yes"/>
      <point x="86" y="-66"/>
      <point x="92" y="-83"/>
      <point x="115" y="-83" type="curve" smooth="yes"/>
      <point x="140" y="-83"/>
      <point x="214" y="-25"/>
      <point x="260" y="40" type="curve" smooth="yes"/>
      <point x="318" y="122"/>
      <point x="344" y="216"/>
    </contour>
  </outline>
</glyph>
<glyph name="slash" format="2">
  <advance width="514"/>
  <unicode hex="002F"/>
  <outline>
    <contour>
      <point x="451" y="640" type="line" smooth="yes"/>
      <point x="454" y="647"/>
      <point x="457" y="654"/>
      <point x="457" y="661" type="curve" smooth="yes"/>
      <point x="457" y="682"/>
      <point x="440" y="694"/>
      <point x="425" y="694" type="curve" smooth="yes"/>
      <point x="404" y="694"/>
      <point x="396" y="677"/>
      <point x="391" y="667" type="curve" smooth="yes"/>
      <point x="63" y="-29" type="line" smooth="yes"/>
      <point x="60" y="-36"/>
      <point x="57" y="-43"/>
      <point x="57" y="-50" type="curve" smooth="yes"/>
      <point x="57" y="-71"/>
      <point x="74" y="-83"/>
      <point x="89" y="-83" type="curve" smooth="yes"/>
      <point x="110" y="-83"/>
      <point x="118" y="-67"/>
      <point x="123" y="-56" type="curve" smooth="yes"/>
    </contour>
  </outline>
</glyph>
<glyph name="zero" format="2">
  <advance width="514"/>
  <unicode hex="0030"/>
  <outline>
    <contour>
      <point x="464" y="305" type="curve" smooth="yes"/>
      <point x="464" y="491"/>
      <point x="365" y="623"/>
      <point x="257" y="623" type="curve" smooth="yes"/>
      <point x="148" y="623"/>
      <point x="50" y="489"/>
      <point x="50" y="306" type="curve" smooth="yes"/>
      <point x="50" y="120"/>
      <point x="149" y="-12"/>
      <point x="257" y="-12" type="curve" smooth="yes"/>
      <point x="366" y="-12"/>
      <point x="464" y="122"/>
    </contour>
    <contour>
      <point x="257" y="46" type="curve" smooth="yes"/>
      <point x="178" y="46"/>
      <point x="115" y="167"/>
      <point x="115" y="316" type="curve" smooth="yes"/>
      <point x="115" y="465"/>
      <point x="184" y="565"/>
      <point x="257" y="565" type="curve" smooth="yes"/>
      <point x="330" y="565"/>
      <point x="399" y="465"/>
      <point x="399" y="316" type="curve" smooth="yes"/>
      <point x="399" y="168"/>
      <point x="336" y="46"/>
    </contour>
  </outline>
</glyph>
<glyph name="three" format="2">
  <advance width="514"/>
  <unicode hex="0033"/>
  <outline>
    <contour>
      <point x="256" y="301" type="line" smooth="yes"/>
      <point x="360" y="301"/>
      <point x="406" y="228"/>
      <point x="406" y="174" type="curve" smooth="yes"/>
      <point x="406" y="108"/>
      <point x="348" y="46"/>
      <point x="260" y="46" type="curve" smooth="yes"/>
      <point x="160" y="46"/>
      <point x="115" y="100"/>
      <point x="115" y="114" type="curve" smooth="yes"/>
      <point x="115" y="116"/>
      <point x="116" y="118"/>
      <point x="117" y="119" type="curve"/>
      <point x="121" y="126"/>
      <point x="124" y="134"/>
      <point x="124" y="143" type="curve" smooth="yes"/>
      <point x="124" y="164"/>
      <point x="108" y="183"/>
      <point x="84" y="183" type="curve" smooth="yes"/>
      <point x="63" y="183"/>
      <point x="43" y="170"/>
      <point x="43" y="139" type="curve" smooth="yes"/>
      <point x="43" y="52"/>
      <point x="138" y="-12"/>
      <point x="260" y="-12" type="curve" smooth="yes"/>
      <point x="386" y="-12"/>
      <point x="471" y="78"/>
      <point x="471" y="173" type="curve" smooth="yes"/>
      <point x="471" y="224"/>
      <point x="443" y="295"/>
      <point x="355" y="333" type="curve"/>
      <point x="416" y="371"/>
      <point x="443" y="431"/>
      <point x="443" y="483" type="curve" smooth="yes"/>
      <point x="443" y="558"/>
      <point x="368" y="623"/>
      <point x="260" y="623" type="curve" smooth="yes"/>
      <point x="149" y="623"/>
      <point x="71" y="575"/>
      <point x="71" y="501" type="curve" smooth="yes"/>
      <point x="71" y="468"/>
      <point x="96" y="458"/>
      <point x="112" y="458" type="curve" smooth="yes"/>
      <point x="130" y="458"/>
      <point x="152" y="472"/>
      <point x="152" y="499" type="curve" smooth="yes"/>
      <point x="152" y="515"/>
      <point x="144" y="524"/>
      <point x="144" y="525" type="curve"/>
      <point x="174" y="563"/>
      <point x="243" y="565"/>
      <point x="260" y="565" type="curve" smooth="yes"/>
      <point x="328" y="565"/>
      <point x="378" y="529"/>
      <point x="378" y="482" type="curve" smooth="yes"/>
      <point x="378" y="453"/>
      <point x="359" y="370"/>
      <point x="254" y="363" type="curve" smooth="yes"/>
      <point x="217" y="361"/>
      <point x="201" y="359"/>
      <point x="197" y="359" type="curve"/>
      <point x="177" y="357"/>
      <point x="172" y="344"/>
      <point x="172" y="330" type="curve" smooth="yes"/>
      <point x="172" y="301"/>
      <point x="193" y="301"/>
      <point x="210" y="301" type="curve" smooth="yes"/>
    </contour>
  </outline>
</glyph>
<glyph name="six" format="2">
  <advance width="514"/>
  <unicode hex="0036"/>
  <outline>
    <contour>
      <point x="119" y="333" type="curve"/>
      <point x="129" y="465"/>
      <point x="216" y="565"/>
      <point x="314" y="565" type="curve" smooth="yes"/>
      <point x="334" y="565"/>
      <point x="357" y="562"/>
      <point x="372" y="546" type="curve"/>
      <point x="368" y="541"/>
      <point x="364" y="536"/>
      <point x="364" y="521" type="curve" smooth="yes"/>
      <point x="364" y="502"/>
      <point x="378" y="481"/>
      <point x="404" y="481" type="curve" smooth="yes"/>
      <point x="430" y="481"/>
      <point x="445" y="500"/>
      <point x="445" y="523" type="curve" smooth="yes"/>
      <point x="445" y="576"/>
      <point x="404" y="623"/>
      <point x="315" y="623" type="curve" smooth="yes"/>
      <point x="184" y="623"/>
      <point x="53" y="501"/>
      <point x="53" y="299" type="curve" smooth="yes"/>
      <point x="53" y="58"/>
      <point x="164" y="-12"/>
      <point x="259" y="-12" type="curve" smooth="yes"/>
      <point x="366" y="-12"/>
      <point x="461" y="73"/>
      <point x="461" y="193" type="curve" smooth="yes"/>
      <point x="461" y="310"/>
      <point x="374" y="398"/>
      <point x="270" y="398" type="curve" smooth="yes"/>
      <point x="219" y="398"/>
      <point x="162" y="379"/>
    </contour>
    <contour>
      <point x="259" y="46" type="curve" smooth="yes"/>
      <point x="152" y="46"/>
      <point x="130" y="182"/>
      <point x="130" y="183" type="curve" smooth="yes"/>
      <point x="130" y="184"/>
      <point x="131" y="189"/>
      <point x="131" y="192" type="curve" smooth="yes"/>
      <point x="131" y="198"/>
      <point x="127" y="211"/>
      <point x="127" y="223" type="curve" smooth="yes"/>
      <point x="127" y="281"/>
      <point x="181" y="339"/>
      <point x="263" y="339" type="curve" smooth="yes"/>
      <point x="341" y="339"/>
      <point x="396" y="272"/>
      <point x="396" y="193" type="curve" smooth="yes"/>
      <point x="396" y="106"/>
      <point x="331" y="46"/>
    </contour>
  </outline>
</glyph>
<glyph name="nine" format="2">
  <advance width="514"/>
  <unicode hex="0039"/>
  <outline>
    <contour>
      <point x="395" y="278" type="curve"/>
      <point x="385" y="145"/>
      <point x="306" y="46"/>
      <point x="212" y="46" type="curve" smooth="yes"/>
      <point x="188" y="46"/>
      <point x="160" y="49"/>
      <point x="142" y="66" type="curve"/>
      <point x="147" y="72"/>
      <point x="150" y="81"/>
      <point x="150" y="90" type="curve" smooth="yes"/>
      <point x="150" y="109"/>
      <point x="136" y="130"/>
      <point x="110" y="130" type="curve" smooth="yes"/>
      <point x="84" y="130"/>
      <point x="69" y="111"/>
      <point x="69" y="88" type="curve" smooth="yes"/>
      <point x="69" y="38"/>
      <point x="105" y="-12"/>
      <point x="211" y="-12" type="curve" smooth="yes"/>
      <point x="344" y="-12"/>
      <point x="461" y="117"/>
      <point x="461" y="311" type="curve" smooth="yes"/>
      <point x="461" y="562"/>
      <point x="346" y="623"/>
      <point x="260" y="623" type="curve" smooth="yes"/>
      <point x="151" y="623"/>
      <point x="53" y="538"/>
      <point x="53" y="418" type="curve" smooth="yes"/>
      <point x="53" y="300"/>
      <point x="140" y="213"/>
      <point x="244" y="213" type="curve" smooth="yes"/>
      <point x="299" y="213"/>
      <point x="355" y="234"/>
    </contour>
    <contour>
      <point x="251" y="272" type="curve" smooth="yes"/>
      <point x="173" y="272"/>
      <point x="118" y="339"/>
      <point x="118" y="418" type="curve" smooth="yes"/>
      <point x="118" y="506"/>
      <point x="187" y="565"/>
      <point x="260" y="565" type="curve" smooth="yes"/>
      <point x="343" y="565"/>
      <point x="371" y="478"/>
      <point x="380" y="449" type="curve" smooth="yes"/>
      <point x="381" y="446"/>
      <point x="381" y="444"/>
      <point x="384" y="420" type="curve" smooth="yes"/>
      <point x="385" y="414"/>
      <point x="387" y="395"/>
      <point x="387" y="389" type="curve" smooth="yes"/>
      <point x="387" y="328"/>
      <point x="330" y="272"/>
    </contour>
  </outline>
</glyph>
<glyph name="semicolon" format="2">
  <advance width="514"/>
  <unicode hex="003B"/>
  <outline>
    <contour>
      <point x="314" y="374" type="curve" smooth="yes"/>
      <point x="314" y="407"/>
      <point x="287" y="431"/>
      <point x="258" y="431" type="curve" smooth="yes"/>
      <point x="226" y="431"/>
      <point x="201" y="406"/>
      <point x="201" y="374" type="curve" smooth="yes"/>
      <point x="201" y="344"/>
      <point x="227" y="318"/>
      <point x="257" y="318" type="curve" smooth="yes"/>
      <point x="290" y="318"/>
      <point x="314" y="345"/>
    </contour>
    <contour>
      <point x="259" y="0" type="curve"/>
      <point x="250" y="-47"/>
      <point x="223" y="-70"/>
      <point x="197" y="-83" type="curve" smooth="yes"/>
      <point x="189" y="-87"/>
      <point x="178" y="-93"/>
      <point x="178" y="-109" type="curve" smooth="yes"/>
      <point x="178" y="-122"/>
      <point x="193" y="-139"/>
      <point x="209" y="-139" type="curve" smooth="yes"/>
      <point x="228" y="-139"/>
      <point x="319" y="-87"/>
      <point x="319" y="20" type="curve" smooth="yes"/>
      <point x="319" y="86"/>
      <point x="291" y="113"/>
      <point x="257" y="113" type="curve" smooth="yes"/>
      <point x="223" y="113"/>
      <point x="201" y="86"/>
      <point x="201" y="57" type="curve" smooth="yes"/>
      <point x="201" y="38"/>
      <point x="212" y="2"/>
    </contour>
  </outline>
</glyph>
<glyph name="less" format="2">
  <advance width="514"/>
  <unicode hex="003C"/>
  <outline>
    <contour>
      <point x="438" y="490" type="line" smooth="yes"/>
      <point x="448" y="497"/>
      <point x="459" y="503"/>
      <point x="459" y="521" type="curve" smooth="yes"/>
      <point x="459" y="542"/>
      <point x="441" y="554"/>
      <point x="426" y="554" type="curve"/>
      <point x="424" y="553" type="line"/>
      <point x="416" y="552"/>
      <point x="414" y="552"/>
      <point x="403" y="544" type="curve"/>
      <point x="74" y="336" type="line" smooth="yes"/>
      <point x="62" y="329"/>
      <point x="55" y="318"/>
      <point x="55" y="306" type="curve" smooth="yes"/>
      <point x="55" y="288"/>
      <point x="66" y="281"/>
      <point x="74" y="276" type="curve" smooth="yes"/>
      <point x="402" y="67" type="line" smooth="yes"/>
      <point x="409" y="63"/>
      <point x="417" y="57"/>
      <point x="426" y="57" type="curve" smooth="yes"/>
      <point x="441" y="57"/>
      <point x="459" y="69"/>
      <point x="459" y="90" type="curve" smooth="yes"/>
      <point x="459" y="102"/>
      <point x="453" y="112"/>
      <point x="442" y="119" type="curve" smooth="yes"/>
      <point x="148" y="305" type="line"/>
    </contour>
  </outline>
</glyph>
<glyph name="equal" format="2">
  <advance width="514"/>
  <unicode hex="003D"/>
  <outline>
    <contour>
      <point x="434" y="349" type="line" smooth="yes"/>
      <point x="447" y="349"/>
      <point x="477" y="349"/>
      <point x="477" y="381" type="curve" smooth="yes"/>
      <point x="477" y="414"/>
      <point x="444" y="414"/>
      <point x="429" y="414" type="curve" smooth="yes"/>
      <point x="85" y="414" type="line" smooth="yes"/>
      <point x="70" y="414"/>
      <point x="37" y="414"/>
      <point x="37" y="381" type="curve" smooth="yes"/>
      <point x="37" y="349"/>
      <point x="68" y="349"/>
      <point x="80" y="349" type="curve" smooth="yes"/>
    </contour>
    <contour>
      <point x="429" y="197" type="line" smooth="yes"/>
      <point x="444" y="197"/>
      <point x="477" y="197"/>
      <point x="477" y="230" type="curve" smooth="yes"/>
      <point x="477" y="262"/>
      <point x="446" y="262"/>
      <point x="434" y="262" type="curve" smooth="yes"/>
      <point x="80" y="262" type="line" smooth="yes"/>
      <point x="67" y="262"/>
      <point x="37" y="262"/>
      <point x="37" y="230" type="curve" smooth="yes"/>
      <point x="37" y="197"/>
      <point x="70" y="197"/>
      <point x="85" y="197" type="curve" smooth="yes"/>
    </contour>
  </outline>
</glyph>
<glyph name="A" format="2">
  <advance width="514"/>
  <unicode hex="0041"/>
  <outline>
    <contour>
      <point x="308" y="589" type="line" smooth="yes"/>
      <point x="300" y="625"/>
      <point x="280" y="625"/>
      <point x="257" y="625" type="curve" smooth="yes"/>
      <point x="226" y="625"/>
      <point x="214" y="621"/>
      <point x="207" y="589" type="curve" smooth="yes"/>
      <point x="83" y="58" type="line"/>
      <point x="50" y="58"/>
      <point x="27" y="58"/>
      <point x="27" y="29" type="curve" smooth="yes"/>
      <point x="27" y="0"/>
      <point x="54" y="0"/>
      <point x="68" y="0" type="curve" smooth="yes"/>
      <point x="164" y="0" type="line" smooth="yes"/>
      <point x="178" y="0"/>
      <point x="205" y="0"/>
      <point x="205" y="29" type="curve" smooth="yes"/>
      <point x="205" y="58"/>
      <point x="181" y="58"/>
      <point x="150" y="58" type="curve"/>
      <point x="176" y="170" type="line"/>
      <point x="338" y="170" type="line"/>
      <point x="364" y="58" type="line"/>
      <point x="333" y="58"/>
      <point x="309" y="58"/>
      <point x="309" y="29" type="curve" smooth="yes"/>
      <point x="309" y="0"/>
      <point x="336" y="0"/>
      <point x="350" y="0" type="curve" smooth="yes"/>
      <point x="446" y="0" type="line" smooth="yes"/>
      <point x="460" y="0"/>
      <point x="487" y="0"/>
      <point x="487" y="29" type="curve" smooth="yes"/>
      <point x="487" y="58"/>
      <point x="464" y="58"/>
      <point x="431" y="58" type="curve"/>
    </contour>
    <contour>
      <point x="189" y="228" type="line"/>
      <point x="196" y="258"/>
      <point x="251" y="494"/>
      <point x="256" y="542" type="curve"/>
      <point x="257" y="542" type="line"/>
      <point x="260" y="519"/>
      <point x="274" y="458"/>
      <point x="274" y="457" type="curve"/>
      <point x="325" y="228" type="line"/>
    </contour>
  </outline>
</glyph>
<glyph name="H" format="2">
  <advance width="514"/>
  <unicode hex="0048"/>
  <outline>
    <contour>
      <point x="428" y="553" type="line"/>
      <point x="450" y="553" type="line" smooth="yes"/>
      <point x="464" y="553"/>
      <point x="490" y="553"/>
      <point x="490" y="582" type="curve" smooth="yes"/>
      <point x="490" y="611"/>
      <point x="465" y="611"/>
      <point x="450" y="611" type="curve" smooth="yes"/>
      <point x="341" y="611" type="line" smooth="yes"/>
      <point x="327" y="611"/>
      <point x="300" y="611"/>
      <point x="300" y="582" type="curve" smooth="yes"/>
      <point x="300" y="553"/>
      <point x="327" y="553"/>
      <point x="341" y="553" type="curve" smooth="yes"/>
      <point x="363" y="553" type="line"/>
      <point x="363" y="347" type="line"/>
      <point x="151" y="347" type="line"/>
      <point x="151" y="553" type="line"/>
      <point x="173" y="553" type="line" smooth="yes"/>
      <point x="187" y="553"/>
      <point x="214" y="553"/>
      <point x="214" y="582" type="curve" smooth="yes"/>
      <point x="214" y="611"/>
      <point x="187" y="611"/>
      <point x="173" y="611" type="curve" smooth="yes"/>
      <point x="64" y="611" type="line" smooth="yes"/>
      <point x="49" y="611"/>
      <point x="24" y="611"/>
      <point x="24" y="582" type="curve" smooth="yes"/>
      <point x="24" y="553"/>
      <point x="50" y="553"/>
      <point x="64" y="553" type="curve" smooth="yes"/>
      <point x="86" y="553" type="line"/>
      <point x="86" y="58" type="line"/>
      <point x="64" y="58" type="line" smooth="yes"/>
      <point x="50" y="58"/>
      <point x="24" y="58"/>
      <point x="24" y="29" type="curve" smooth="yes"/>
      <point x="24" y="0"/>
      <point x="49" y="0"/>
      <point x="64" y="0" type="curve" smooth="yes"/>
      <point x="173" y="0" type="line" smooth="yes"/>
      <point x="187" y="0"/>
      <point x="214" y="0"/>
      <point x="214" y="29" type="curve" smooth="yes"/>
      <point x="214" y="58"/>
      <point x="187" y="58"/>
      <point x="173" y="58" type="curve" smooth="yes"/>
      <point x="151" y="58" type="line"/>
      <point x="151" y="289" type="line"/>
      <point x="363" y="289" type="line"/>
      <point x="363" y="58" type="line"/>
      <point x="341" y="58" type="line" smooth="yes"/>
      <point x="327" y="58"/>
      <point x="300" y="58"/>
      <point x="300" y="29" type="curve" smooth="yes"/>
      <point x="300" y="0"/>
      <point x="327" y="0"/>
      <point x="341" y="0" type="curve" smooth="yes"/>
      <point x="450" y="0" type="line" smooth="yes"/>
      <point x="465" y="0"/>
      <point x="490" y="0"/>
      <point x="490" y="29" type="curve" smooth="yes"/>
      <point x="490" y="58"/>
      <point x="464" y="58"/>
      <point x="450" y="58" type="curve" smooth="yes"/>
      <point x="428" y="58" type="line"/>
    </contour>
  </outline>
</glyph>
<glyph name="I" format="2">
  <advance width="514"/>
  <unicode hex="0049"/>
  <outline>
    <contour>
      <point x="290" y="553" type="line"/>
      <point x="392" y="553" type="line" smooth="yes"/>
      <point x="406" y="553"/>
      <point x="432" y="553"/>
      <point x="432" y="582" type="curve" smooth="yes"/>
      <point x="432" y="611"/>
      <point x="406" y="611"/>
      <point x="392" y="611" type="curve" smooth="yes"/>
      <point x="123" y="611" type="line" smooth="yes"/>
      <point x="109" y="611"/>
      <point x="83" y="611"/>
      <point x="83" y="582" type="curve" smooth="yes"/>
      <point x="83" y="553"/>
      <point x="109" y="553"/>
      <point x="123" y="553" type="curve" smooth="yes"/>
      <point x="225" y="553" type="line"/>
      <point x="225" y="58" type="line"/>
      <point x="123" y="58" type="line" smooth="yes"/>
      <point x="109" y="58"/>
      <point x="83" y="58"/>
      <point x="83" y="29" type="curve" smooth="yes"/>
      <point x="83" y="0"/>
      <point x="109" y="0"/>
      <point x="123" y="0" type="curve" smooth="yes"/>
      <point x="392" y="0" type="line" smooth="yes"/>
      <point x="406" y="0"/>
      <point x="432" y="0"/>
      <point x="432" y="29" type="curve" smooth="yes"/>
      <point x="432" y="58"/>
      <point x="406" y="58"/>
      <point x="392" y="58" type="curve" smooth="yes"/>
      <point x="290" y="58" type="line"/>
    </contour>
  </outline>
</glyph>
<glyph name="K" format="2">
  <advance width="514"/>
  <unicode hex="004B"/>
  <outline>
    <contour>
      <point x="271" y="358" type="line"/>
      <point x="424" y="553" type="line"/>
      <point x="453" y="553"/>
      <point x="476" y="553"/>
      <point x="476" y="582" type="curve" smooth="yes"/>
      <point x="476" y="611"/>
      <point x="450" y="611"/>
      <point x="436" y="611" type="curve" smooth="yes"/>
      <point x="352" y="611" type="line" smooth="yes"/>
      <point x="338" y="611"/>
      <point x="312" y="611"/>
      <point x="312" y="582" type="curve" smooth="yes"/>
      <point x="312" y="553"/>
      <point x="338" y="553"/>
      <point x="352" y="553" type="curve"/>
      <point x="142" y="285" type="line"/>
      <point x="142" y="553" type="line"/>
      <point x="162" y="553" type="line" smooth="yes"/>
      <point x="176" y="553"/>
      <point x="202" y="553"/>
      <point x="202" y="582" type="curve" smooth="yes"/>
      <point x="202" y="611"/>
      <point x="176" y="611"/>
      <point x="162" y="611" type="curve" smooth="yes"/>
      <point x="66" y="611" type="line" smooth="yes"/>
      <point x="52" y="611"/>
      <point x="26" y="611"/>
      <point x="26" y="582" type="curve" smooth="yes"/>
      <point x="26" y="553"/>
      <point x="52" y="553"/>
      <point x="66" y="553" type="curve" smooth="yes"/>
      <point x="86" y="553" type="line"/>
      <point x="86" y="58" type="line"/>
      <point x="66" y="58" type="line" smooth="yes"/>
      <point x="52" y="58"/>
      <point x="26" y="58"/>
      <point x="26" y="29" type="curve" smooth="yes"/>
      <point x="26" y="0"/>
      <point x="52" y="0"/>
      <point x="66" y="0" type="curve" smooth="yes"/>
      <point x="162" y="0" type="line" smooth="yes"/>
      <point x="176" y="0"/>
      <point x="202" y="0"/>
      <point x="202" y="29" type="curve" smooth="yes"/>
      <point x="202" y="58"/>
      <point x="176" y="58"/>
      <point x="162" y="58" type="curve" smooth="yes"/>
      <point x="142" y="58" type="line"/>
      <point x="142" y="194" type="line"/>
      <point x="233" y="310" type="line"/>
      <point x="372" y="58" type="line"/>
      <point x="359" y="58"/>
      <point x="333" y="58"/>
      <point x="333" y="29" type="curve" smooth="yes"/>
      <point x="333" y="0"/>
      <point x="359" y="0"/>
      <point x="373" y="0" type="curve" smooth="yes"/>
      <point x="445" y="0" type="line" smooth="yes"/>
      <point x="459" y="0"/>
      <point x="485" y="0"/>
      <point x="485" y="29" type="curve" smooth="yes"/>
      <point x="485" y="58"/>
      <point x="461" y="58"/>
      <point x="436" y="58" type="curve"/>
    </contour>
  </outline>
</glyph>
<glyph name="M" format="2">
  <advance width="514"/>
  <unicode hex="004D"/>
  <outline>
    <contour>
      <point x="292" y="394" type="line" smooth="yes"/>
      <point x="279" y="353"/>
      <point x="263" y="305"/>
      <point x="257" y="272" type="curve"/>
      <point x="256" y="272" type="line"/>
      <point x="248" y="322"/>
      <point x="161" y="584"/>
      <point x="159" y="588" type="curve" smooth="yes"/>
      <point x="148" y="611"/>
      <point x="128" y="611"/>
      <point x="111" y="611" type="curve" smooth="yes"/>
      <point x="58" y="611" type="line" smooth="yes"/>
      <point x="44" y="611"/>
      <point x="17" y="611"/>
      <point x="17" y="582" type="curve" smooth="yes"/>
      <point x="17" y="553"/>
      <point x="42" y="553"/>
      <point x="68" y="553" type="curve"/>
      <point x="68" y="58" type="line"/>
      <point x="42" y="58"/>
      <point x="17" y="58"/>
      <point x="17" y="29" type="curve" smooth="yes"/>
      <point x="17" y="0"/>
      <point x="44" y="0"/>
      <point x="58" y="0" type="curve" smooth="yes"/>
      <point x="134" y="0" type="line" smooth="yes"/>
      <point x="148" y="0"/>
      <point x="175" y="0"/>
      <point x="175" y="29" type="curve" smooth="yes"/>
      <point x="175" y="58"/>
      <point x="150" y="58"/>
      <point x="124" y="58" type="curve"/>
      <point x="124" y="541" type="line"/>
      <point x="125" y="541" type="line"/>
      <point x="131" y="510"/>
      <point x="134" y="499"/>
      <point x="146" y="463" type="curve" smooth="yes"/>
      <point x="217" y="240" type="line"/>
      <point x="219" y="232"/>
      <point x="228" y="204"/>
      <point x="257" y="204" type="curve" smooth="yes"/>
      <point x="269" y="204"/>
      <point x="286" y="212"/>
      <point x="294" y="230" type="curve"/>
      <point x="299" y="245"/>
      <point x="390" y="525"/>
      <point x="390" y="539" type="curve"/>
      <point x="390" y="58" type="line"/>
      <point x="364" y="58"/>
      <point x="339" y="58"/>
      <point x="339" y="29" type="curve" smooth="yes"/>
      <point x="339" y="0"/>
      <point x="366" y="0"/>
      <point x="380" y="0" type="curve" smooth="yes"/>
      <point x="456" y="0" type="line" smooth="yes"/>
      <point x="470" y="0"/>
      <point x="497" y="0"/>
      <point x="497" y="29" type="curve" smooth="yes"/>
      <point x="497" y="58"/>
      <point x="472" y="58"/>
      <point x="446" y="58" type="curve"/>
      <point x="446" y="553" type="line"/>
      <point x="472" y="553"/>
      <point x="497" y="553"/>
      <point x="497" y="582" type="curve" smooth="yes"/>
      <point x="497" y="611"/>
      <point x="470" y="611"/>
      <point x="456" y="611" type="curve" smooth="yes"/>
      <point x="403" y="611" type="line" smooth="yes"/>
      <point x="364" y="611"/>
      <point x="358" y="599"/>
      <point x="350" y="573" type="curve" smooth="yes"/>
    </contour>
  </outline>
</glyph>
<glyph name="O" format="2">
  <advance width="514"/>
  <unicode hex="004F"/>
  <outline>
    <contour>
      <point x="459" y="305" type="curve" smooth="yes"/>
      <point x="459" y="596"/>
      <point x="438" y="623"/>
      <point x="257" y="623" type="curve" smooth="yes"/>
      <point x="76" y="623"/>
      <point x="55" y="596"/>
      <point x="55" y="306" type="curve" smooth="yes"/>
      <point x="55" y="15"/>
      <point x="76" y="-12"/>
      <point x="257" y="-12" type="curve" smooth="yes"/>
      <point x="438" y="-12"/>
      <point x="459" y="15"/>
    </contour>
    <contour>
      <point x="257" y="46" type="curve" smooth="yes"/>
      <point x="166" y="46"/>
      <point x="144" y="70"/>
      <point x="133" y="116" type="curve" smooth="yes"/>
      <point x="120" y="167"/>
      <point x="120" y="257"/>
      <point x="120" y="314" type="curve" smooth="yes"/>
      <point x="120" y="378"/>
      <point x="120" y="449"/>
      <point x="131" y="497" type="curve" smooth="yes"/>
      <point x="145" y="552"/>
      <point x="175" y="565"/>
      <point x="257" y="565" type="curve" smooth="yes"/>
      <point x="336" y="565"/>
      <point x="368" y="553"/>
      <point x="382" y="500" type="curve" smooth="yes"/>
      <point x="394" y="453"/>
      <point x="394" y="375"/>
      <point x="394" y="314" type="curve" smooth="yes"/>
      <point x="394" y="252"/>
      <point x="394" y="175"/>
      <point x="383" y="121" type="curve" smooth="yes"/>
      <point x="372" y="70"/>
      <point x="350" y="46"/>
    </contour>
  </outline>
</glyph>
<glyph name="U" format="2">
  <advance width="514"/>
  <unicode hex="0055"/>
  <outline>
    <contour>
      <point x="439" y="553" type="line"/>
      <point x="466" y="553" type="line" smooth="yes"/>
      <point x="480" y="553"/>
      <point x="507" y="553"/>
      <point x="507" y="582" type="curve" smooth="yes"/>
      <point x="507" y="611"/>
      <point x="480" y="611"/>
      <point x="466" y="611" type="curve" smooth="yes"/>
      <point x="347" y="611" type="line" smooth="yes"/>
      <point x="333" y="611"/>
      <point x="306" y="611"/>
      <point x="306" y="582" type="curve" smooth="yes"/>
      <point x="306" y="553"/>
      <point x="333" y="553"/>
      <point x="347" y="553" type="curve" smooth="yes"/>
      <point x="374" y="553" type="line"/>
      <point x="374" y="209" type="line" smooth="yes"/>
      <point x="374" y="100"/>
      <point x="309" y="46"/>
      <point x="257" y="46" type="curve" smooth="yes"/>
      <point x="204" y="46"/>
      <point x="140" y="101"/>
      <point x="140" y="209" type="curve" smooth="yes"/>
      <point x="140" y="553" type="line"/>
      <point x="167" y="553" type="line" smooth="yes"/>
      <point x="181" y="553"/>
      <point x="208" y="553"/>
      <point x="208" y="582" type="curve" smooth="yes"/>
      <point x="208" y="611"/>
      <point x="181" y="611"/>
      <point x="167" y="611" type="curve" smooth="yes"/>
      <point x="48" y="611" type="line" smooth="yes"/>
      <point x="34" y="611"/>
      <point x="7" y="611"/>
      <point x="7" y="582" type="curve" smooth="yes"/>
      <point x="7" y="553"/>
      <point x="34" y="553"/>
      <point x="48" y="553" type="curve" smooth="yes"/>
      <point x="75" y="553" type="line"/>
      <point x="75" y="203" type="line" smooth="yes"/>
      <point x="75" y="82"/>
      <point x="158" y="-12"/>
      <point x="257" y="-12" type="curve" smooth="yes"/>
      <point x="356" y="-12"/>
      <point x="439" y="82"/>
      <point x="439" y="203" type="curve" smooth="yes"/>
    </contour>
  </outline>
</glyph>
<glyph name="W" format="2">
  <advance width="514"/>
  <unicode hex="0057"/>
  <outline>
    <contour>
      <point x="467" y="553" type="line"/>
      <point x="474" y="553"/>
      <point x="503" y="553"/>
      <point x="503" y="582" type="curve" smooth="yes"/>
      <point x="503" y="611"/>
      <point x="476" y="611"/>
      <point x="462" y="611" type="curve" smooth="yes"/>
      <point x="388" y="611" type="line" smooth="yes"/>
      <point x="374" y="611"/>
      <point x="347" y="611"/>
      <point x="347" y="582" type="curve" smooth="yes"/>
      <point x="347" y="553"/>
      <point x="374" y="553"/>
      <point x="388" y="553" type="curve" smooth="yes"/>
      <point x="411" y="553" type="line"/>
      <point x="368" y="229" type="line" smooth="yes"/>
      <point x="361" y="172"/>
      <point x="352" y="110"/>
      <point x="351" y="72" type="curve"/>
      <point x="350" y="72" type="line"/>
      <point x="345" y="143"/>
      <point x="298" y="339"/>
      <point x="298" y="341" type="curve"/>
      <point x="291" y="367"/>
      <point x="266" y="367"/>
      <point x="257" y="367" type="curve" smooth="yes"/>
      <point x="248" y="367"/>
      <point x="227" y="367"/>
      <point x="218" y="346" type="curve" smooth="yes"/>
      <point x="214" y="337"/>
      <point x="169" y="139"/>
      <point x="164" y="72" type="curve"/>
      <point x="163" y="72" type="line"/>
      <point x="162" y="99"/>
      <point x="160" y="113"/>
      <point x="155" y="153" type="curve" smooth="yes"/>
      <point x="104" y="553" type="line"/>
      <point x="126" y="553" type="line" smooth="yes"/>
      <point x="140" y="553"/>
      <point x="167" y="553"/>
      <point x="167" y="582" type="curve" smooth="yes"/>
      <point x="167" y="611"/>
      <point x="140" y="611"/>
      <point x="126" y="611" type="curve" smooth="yes"/>
      <point x="52" y="611" type="line" smooth="yes"/>
      <point x="38" y="611"/>
      <point x="11" y="611"/>
      <point x="11" y="582" type="curve" smooth="yes"/>
      <point x="11" y="553"/>
      <point x="40" y="553"/>
      <point x="46" y="553" type="curve" smooth="yes"/>
      <point x="47" y="553" type="line"/>
      <point x="119" y="30" type="line" smooth="yes"/>
      <point x="122" y="10"/>
      <point x="124" y="-9"/>
      <point x="158" y="-9" type="curve" smooth="yes"/>
      <point x="168" y="-9"/>
      <point x="189" y="-9"/>
      <point x="198" y="14" type="curve"/>
      <point x="200" y="20"/>
      <point x="252" y="247"/>
      <point x="256" y="296" type="curve"/>
      <point x="257" y="296" type="line"/>
      <point x="261" y="250"/>
      <point x="313" y="20"/>
      <point x="317" y="11" type="curve" smooth="yes"/>
      <point x="327" y="-9"/>
      <point x="346" y="-9"/>
      <point x="356" y="-9" type="curve" smooth="yes"/>
      <point x="390" y="-9"/>
      <point x="392" y="11"/>
      <point x="395" y="29" type="curve" smooth="yes"/>
    </contour>
  </outline>
</glyph>
<glyph name="X" format="2">
  <advance width="514"/>
  <unicode hex="0058"/>
  <outline>
    <contour>
      <point x="284" y="325" type="line"/>
      <point x="399" y="553" type="line"/>
      <point x="417" y="553" type="line" smooth="yes"/>
      <point x="431" y="553"/>
      <point x="458" y="553"/>
      <point x="458" y="582" type="curve" smooth="yes"/>
      <point x="458" y="611"/>
      <point x="431" y="611"/>
      <point x="417" y="611" type="curve" smooth="yes"/>
      <point x="323" y="611" type="line" smooth="yes"/>
      <point x="309" y="611"/>
      <point x="282" y="611"/>
      <point x="282" y="582" type="curve" smooth="yes"/>
      <point x="282" y="553"/>
      <point x="308" y="553"/>
      <point x="327" y="553" type="curve"/>
      <point x="252" y="399" type="line"/>
      <point x="171" y="553" type="line"/>
      <point x="188" y="553"/>
      <point x="213" y="553"/>
      <point x="213" y="582" type="curve" smooth="yes"/>
      <point x="213" y="611"/>
      <point x="187" y="611"/>
      <point x="173" y="611" type="curve" smooth="yes"/>
      <point x="78" y="611" type="line" smooth="yes"/>
      <point x="64" y="611"/>
      <point x="38" y="611"/>
      <point x="38" y="582" type="curve" smooth="yes"/>
      <point x="38" y="553"/>
      <point x="64" y="553"/>
      <point x="78" y="553" type="curve" smooth="yes"/>
      <point x="98" y="553" type="line"/>
      <point x="219" y="325" type="line"/>
      <point x="86" y="58" type="line"/>
      <point x="67" y="58" type="line" smooth="yes"/>
      <point x="53" y="58"/>
      <point x="27" y="58"/>
      <point x="27" y="29" type="curve" smooth="yes"/>
      <point x="27" y="0"/>
      <point x="53" y="0"/>
      <point x="67" y="0" type="curve" smooth="yes"/>
      <point x="162" y="0" type="line" smooth="yes"/>
      <point x="176" y="0"/>
      <point x="202" y="0"/>
      <point x="202" y="29" type="curve" smooth="yes"/>
      <point x="202" y="58"/>
      <point x="177" y="58"/>
      <point x="157" y="58" type="curve"/>
      <point x="252" y="258" type="line"/>
      <point x="354" y="58" type="line"/>
      <point x="337" y="58"/>
      <point x="310" y="58"/>
      <point x="310" y="29" type="curve" smooth="yes"/>
      <point x="310" y="0"/>
      <point x="337" y="0"/>
      <point x="351" y="0" type="curve" smooth="yes"/>
      <point x="446" y="0" type="line" smooth="yes"/>
      <point x="460" y="0"/>
      <point x="486" y="0"/>
      <point x="486" y="29" type="curve" smooth="yes"/>
      <point x="486" y="58"/>
      <point x="460" y="58"/>
      <point x="446" y="58" type="curve" smooth="yes"/>
      <point x="426" y="58" type="line"/>
    </contour>
  </outline>
</glyph>
<glyph name="bracketright" format="2">
  <advance width="514"/>
  <unicode hex="005D"/>
  <outline>
    <contour>
      <point x="294" y="653" type="line" smooth="yes"/>
      <point x="294" y="684"/>
      <point x="288" y="694"/>
      <point x="254" y="694" type="curve" smooth="yes"/>
      <point x="80" y="694" type="line" smooth="yes"/>
      <point x="66" y="694"/>
      <point x="40" y="694"/>
      <point x="40" y="665" type="curve" smooth="yes"/>
      <point x="40" y="636"/>
      <point x="66" y="636"/>
      <point x="80" y="636" type="curve" smooth="yes"/>
      <point x="229" y="636" type="line"/>
      <point x="229" y="-25" type="line"/>
      <point x="80" y="-25" type="line" smooth="yes"/>
      <point x="66" y="-25"/>
      <point x="40" y="-25"/>
      <point x="40" y="-54" type="curve" smooth="yes"/>
      <point x="40" y="-83"/>
      <point x="66" y="-83"/>
      <point x="80" y="-83" type="curve" smooth="yes"/>
      <point x="254" y="-83" type="line" smooth="yes"/>
      <point x="287" y="-83"/>
      <point x="294" y="-74"/>
      <point x="294" y="-42" type="curve" smooth="yes"/>
    </contour>
  </outline>
</glyph>
<glyph name="b" format="2">
  <advance width="514"/>
  <unicode hex="0062"/>
  <outline>
    <contour>
      <point x="161" y="570" type="line" smooth="yes"/>
      <point x="161" y="601"/>
      <point x="155" y="611"/>
      <point x="121" y="611" type="curve" smooth="yes"/>
      <point x="55" y="611" type="line" smooth="yes"/>
      <point x="41" y="611"/>
      <point x="15" y="611"/>
      <point x="15" y="582" type="curve" smooth="yes"/>
      <point x="15" y="553"/>
      <point x="41" y="553"/>
      <point x="55" y="553" type="curve" smooth="yes"/>
      <point x="96" y="553" type="line"/>
      <point x="96" y="41" type="line" smooth="yes"/>
      <point x="96" y="23"/>
      <point x="96" y="0"/>
      <point x="129" y="0" type="curve" smooth="yes"/>
      <point x="161" y="0"/>
      <point x="161" y="21"/>
      <point x="161" y="50" type="curve"/>
      <point x="185" y="23"/>
      <point x="222" y="-6"/>
      <point x="278" y="-6" type="curve" smooth="yes"/>
      <point x="384" y="-6"/>
      <point x="477" y="89"/>
      <point x="477" y="216" type="curve" smooth="yes"/>
      <point x="477" y="339"/>
      <point x="393" y="437"/>
      <point x="289" y="437" type="curve" smooth="yes"/>
      <point x="216" y="437"/>
      <point x="170" y="393"/>
      <point x="161" y="383" type="curve"/>
    </contour>
    <contour>
      <point x="161" y="266" type="line" smooth="yes"/>
      <point x="161" y="323"/>
      <point x="217" y="379"/>
      <point x="282" y="379" type="curve" smooth="yes"/>
      <point x="354" y="379"/>
      <point x="412" y="306"/>
      <point x="412" y="216" type="curve" smooth="yes"/>
      <point x="412" y="120"/>
      <point x="344" y="52"/>
      <point x="273" y="52" type="curve" smooth="yes"/>
      <point x="198" y="52"/>
      <point x="161" y="137"/>
      <point x="161" y="187" type="curve" smooth="yes"/>
    </contour>
  </outline>
</glyph>
<glyph name="f" format="2">
  <advance width="514"/>
  <unicode hex="0066"/>
  <outline>
    <contour>
      <point x="247" y="373" type="line"/>
      <point x="368" y="373" type="line" smooth="yes"/>
      <point x="382" y="373"/>
      <point x="408" y="373"/>
      <point x="408" y="402" type="curve" smooth="yes"/>
      <point x="408" y="431"/>
      <point x="382" y="431"/>
      <point x="368" y="431" type="curve" smooth="yes"/>
      <point x="247" y="431" type="line"/>
      <point x="247" y="481" type="line" smooth="yes"/>
      <point x="247" y="559"/>
      <point x="317" y="559"/>
      <point x="349" y="559" type="curve"/>
      <point x="349" y="557"/>
      <point x="357" y="520"/>
      <point x="390" y="520" type="curve" smooth="yes"/>
      <point x="406" y="520"/>
      <point x="429" y="532"/>
      <point x="429" y="560" type="curve" smooth="yes"/>
      <point x="429" y="617"/>
      <point x="353" y="617"/>
      <point x="338" y="617" type="curve" smooth="yes"/>
      <point x="262" y="617"/>
      <point x="182" y="574"/>
      <point x="182" y="485" type="curve" smooth="yes"/>
      <point x="182" y="431" type="line"/>
      <point x="83" y="431" type="line" smooth="yes"/>
      <point x="69" y="431"/>
      <point x="42" y="431"/>
      <point x="42" y="402" type="curve" smooth="yes"/>
      <point x="42" y="373"/>
      <point x="68" y="373"/>
      <point x="82" y="373" type="curve" smooth="yes"/>
      <point x="182" y="373" type="line"/>
      <point x="182" y="58" type="line"/>
      <point x="87" y="58" type="line" smooth="yes"/>
      <point x="73" y="58"/>
      <point x="47" y="58"/>
      <point x="47" y="29" type="curve" smooth="yes"/>
      <point x="47" y="0"/>
      <point x="73" y="0"/>
      <point x="87" y="0" type="curve" smooth="yes"/>
      <point x="342" y="0" type="line" smooth="yes"/>
      <point x="356" y="0"/>
      <point x="382" y="0"/>
      <point x="382" y="29" type="curve" smooth="yes"/>
      <point x="382" y="58"/>
      <point x="356" y="58"/>
      <point x="342" y="58" type="curve" smooth="yes"/>
      <point x="247" y="58" type="line"/>
    </contour>
  </outline>
</glyph>
<glyph name="g" format="2">
  <advance width="514"/>
  <unicode hex="0067"/>
  <outline>
    <contour>
      <point x="190" y="61" type="line" smooth="yes"/>
      <point x="178" y="61"/>
      <point x="132" y="61"/>
      <point x="132" y="115" type="curve" smooth="yes"/>
      <point x="132" y="134"/>
      <point x="135" y="138"/>
      <point x="139" y="146" type="curve"/>
      <point x="159" y="132"/>
      <point x="192" y="119"/>
      <point x="228" y="119" type="curve" smooth="yes"/>
      <point x="319" y="119"/>
      <point x="389" y="192"/>
      <point x="389" y="278" type="curve" smooth="yes"/>
      <point x="389" y="303"/>
      <point x="383" y="334"/>
      <point x="362" y="367" type="curve"/>
      <point x="388" y="381"/>
      <point x="412" y="384"/>
      <point x="427" y="385" type="curve"/>
      <point x="433" y="354"/>
      <point x="462" y="353"/>
      <point x="463" y="353" type="curve" smooth="yes"/>
      <point x="475" y="353"/>
      <point x="500" y="361"/>
      <point x="500" y="391" type="curve" smooth="yes"/>
      <point x="500" y="410"/>
      <point x="485" y="443"/>
      <point x="429" y="443" type="curve" smooth="yes"/>
      <point x="411" y="443"/>
      <point x="366" y="439"/>
      <point x="324" y="406" type="curve"/>
      <point x="291" y="429"/>
      <point x="257" y="437"/>
      <point x="229" y="437" type="curve" smooth="yes"/>
      <point x="138" y="437"/>
      <point x="68" y="364"/>
      <point x="68" y="278" type="curve" smooth="yes"/>
      <point x="68" y="256"/>
      <point x="73" y="218"/>
      <point x="101" y="182" type="curve"/>
      <point x="82" y="154"/>
      <point x="79" y="124"/>
      <point x="79" y="112" type="curve" smooth="yes"/>
      <point x="79" y="77"/>
      <point x="96" y="49"/>
      <point x="104" y="40" type="curve"/>
      <point x="49" y="10"/>
      <point x="29" y="-44"/>
      <point x="29" y="-83" type="curve" smooth="yes"/>
      <point x="29" y="-166"/>
      <point x="130" y="-229"/>
      <point x="257" y="-229" type="curve" smooth="yes"/>
      <point x="384" y="-229"/>
      <point x="485" y="-167"/>
      <point x="485" y="-83" type="curve" smooth="yes"/>
      <point x="485" y="61"/>
      <point x="308" y="61"/>
      <point x="275" y="61" type="curve" smooth="yes"/>
    </contour>
    <contour>
      <point x="228" y="175" type="curve" smooth="yes"/>
      <point x="178" y="175"/>
      <point x="133" y="219"/>
      <point x="133" y="278" type="curve" smooth="yes"/>
      <point x="133" y="337"/>
      <point x="179" y="381"/>
      <point x="228" y="381" type="curve" smooth="yes"/>
      <point x="281" y="381"/>
      <point x="324" y="335"/>
      <point x="324" y="278" type="curve" smooth="yes"/>
      <point x="324" y="221"/>
      <point x="281" y="175"/>
    </contour>
    <contour>
      <point x="257" y="-173" type="curve" smooth="yes"/>
      <point x="159" y="-173"/>
      <point x="86" y="-129"/>
      <point x="86" y="-83" type="curve" smooth="yes"/>
      <point x="86" y="-68"/>
      <point x="91" y="-33"/>
      <point x="128" y="-10" type="curve" smooth="yes"/>
      <point x="151" y="5"/>
      <point x="161" y="5"/>
      <point x="230" y="5" type="curve" smooth="yes"/>
      <point x="318" y="5"/>
      <point x="428" y="5"/>
      <point x="428" y="-83" type="curve" smooth="yes"/>
      <point x="428" y="-129"/>
      <point x="355" y="-173"/>
    </contour>
  </outline>
</glyph>
<glyph name="i" format="2">
  <advance width="514"/>
  <unicode hex="0069"/>
  <outline>
    <contour>
      <point x="302" y="567" type="curve" smooth="yes"/>
      <point x="302" y="592"/>
      <point x="282" y="612"/>
      <point x="257" y="612" type="curve" smooth="yes"/>
      <point x="232" y="612"/>
      <point x="212" y="592"/>
      <point x="212" y="567" type="curve" smooth="yes"/>
      <point x="212" y="542"/>
      <point x="232" y="522"/>
      <point x="257" y="522" type="curve" smooth="yes"/>
      <point x="282" y="522"/>
      <point x="302" y="542"/>
    </contour>
    <contour>
      <point x="130" y="431" type="line" smooth="yes"/>
      <point x="116" y="431"/>
      <point x="90" y="431"/>
      <point x="90" y="402" type="curve" smooth="yes"/>
      <point x="90" y="373"/>
      <point x="116" y="373"/>
      <point x="130" y="373" type="curve" smooth="yes"/>
      <point x="237" y="373" type="line"/>
      <point x="237" y="58" type="line"/>
      <point x="123" y="58" type="line" smooth="yes"/>
      <point x="109" y="58"/>
      <point x="82" y="58"/>
      <point x="82" y="29" type="curve" smooth="yes"/>
      <point x="82" y="0"/>
      <point x="109" y="0"/>
      <point x="123" y="0" type="curve" smooth="yes"/>
      <point x="401" y="0" type="line" smooth="yes"/>
      <point x="415" y="0"/>
      <point x="441" y="0"/>
      <point x="441" y="29" type="curve" smooth="yes"/>
      <point x="441" y="58"/>
      <point x="415" y="58"/>
      <point x="401" y="58" type="curve" smooth="yes"/>
      <point x="302" y="58" type="line"/>
      <point x="302" y="390" type="line" smooth="yes"/>
      <point x="302" y="421"/>
      <point x="296" y="431"/>
      <point x="262" y="431" type="curve" smooth="yes"/>
    </contour>
  </outline>
</glyph>
<glyph name="l" format="2">
  <advance width="514"/>
  <unicode hex="006C"/>
  <outline>
    <contour>
      <point x="290" y="570" type="line" smooth="yes"/>
      <point x="290" y="601"/>
      <point x="284" y="611"/>
      <point x="250" y="611" type="curve" smooth="yes"/>
      <point x="103" y="611" type="line" smooth="yes"/>
      <point x="89" y="611"/>
      <point x="63" y="611"/>
      <point x="63" y="582" type="curve" smooth="yes"/>
      <point x="63" y="553"/>
      <point x="89" y="553"/>
      <point x="103" y="553" type="curve" smooth="yes"/>
      <point x="225" y="553" type="line"/>
      <point x="225" y="58" type="line"/>
      <point x="103" y="58" type="line" smooth="yes"/>
      <point x="89" y="58"/>
      <point x="63" y="58"/>
      <point x="63" y="29" type="curve" smooth="yes"/>
      <point x="63" y="0"/>
      <point x="89" y="0"/>
      <point x="103" y="0" type="curve" smooth="yes"/>
      <point x="412" y="0" type="line" smooth="yes"/>
      <point x="426" y="0"/>
      <point x="452" y="0"/>
      <point x="452" y="29" type="curve" smooth="yes"/>
      <point x="452" y="58"/>
      <point x="426" y="58"/>
      <point x="412" y="58" type="curve" smooth="yes"/>
      <point x="290" y="58" type="line"/>
    </contour>
  </outline>
</glyph>
<glyph name="p" format="2">
  <advance width="514"/>
  <unicode hex="0070"/>
  <outline>
    <contour>
      <point x="202" y="-222" type="line" smooth="yes"/>
      <point x="216" y="-222"/>
      <point x="242" y="-222"/>
      <point x="242" y="-193" type="curve" smooth="yes"/>
      <point x="242" y="-164"/>
      <point x="216" y="-164"/>
      <point x="202" y="-164" type="curve" smooth="yes"/>
      <point x="161" y="-164" type="line"/>
      <point x="161" y="50" type="line"/>
      <point x="185" y="23"/>
      <point x="222" y="-6"/>
      <point x="278" y="-6" type="curve" smooth="yes"/>
      <point x="384" y="-6"/>
      <point x="477" y="89"/>
      <point x="477" y="216" type="curve" smooth="yes"/>
      <point x="477" y="339"/>
      <point x="393" y="437"/>
      <point x="289" y="437" type="curve" smooth="yes"/>
      <point x="216" y="437"/>
      <point x="170" y="393"/>
      <point x="161" y="383" type="curve"/>
      <point x="161" y="416"/>
      <point x="161" y="431"/>
      <point x="121" y="431" type="curve" smooth="yes"/>
      <point x="55" y="431" type="line" smooth="yes"/>
      <point x="41" y="431"/>
      <point x="15" y="431"/>
      <point x="15" y="402" type="curve" smooth="yes"/>
      <point x="15" y="373"/>
      <point x="41" y="373"/>
      <point x="55" y="373" type="curve" smooth="yes"/>
      <point x="96" y="373" type="line"/>
      <point x="96" y="-164" type="line"/>
      <point x="55" y="-164" type="line" smooth="yes"/>
      <point x="41" y="-164"/>
      <point x="15" y="-164"/>
      <point x="15" y="-193" type="curve" smooth="yes"/>
      <point x="15" y="-222"/>
      <point x="41" y="-222"/>
      <point x="55" y="-222" type="curve" smooth="yes"/>
    </contour>
    <contour>
      <point x="161" y="266" type="line" smooth="yes"/>
      <point x="161" y="323"/>
      <point x="217" y="379"/>
      <point x="282" y="379" type="curve" smooth="yes"/>
      <point x="354" y="379"/>
      <point x="412" y="306"/>
      <point x="412" y="216" type="curve" smooth="yes"/>
      <point x="412" y="120"/>
      <point x="344" y="52"/>
      <point x="273" y="52" type="curve" smooth="yes"/>
      <point x="198" y="52"/>
      <point x="161" y="137"/>
      <point x="161" y="187" type="curve" smooth="yes"/>
    </contour>
  </outline>
</glyph>
<glyph name="q" format="2">
  <advance width="514"/>
  <unicode hex="0071"/>
  <outline>
    <contour>
      <point x="438" y="396" type="line" smooth="yes"/>
      <point x="438" y="414"/>
      <point x="438" y="437"/>
      <point x="406" y="437" type="curve" smooth="yes"/>
      <point x="373" y="437"/>
      <point x="373" y="415"/>
      <point x="373" y="396" type="curve" smooth="yes"/>
      <point x="373" y="377" type="line"/>
      <point x="354" y="397"/>
      <point x="317" y="437"/>
      <point x="248" y="437" type="curve" smooth="yes"/>
      <point x="139" y="437"/>
      <point x="41" y="343"/>
      <point x="41" y="215" type="curve" smooth="yes"/>
      <point x="41" y="93"/>
      <point x="129" y="-6"/>
      <point x="238" y="-6" type="curve" smooth="yes"/>
      <point x="311" y="-6"/>
      <point x="352" y="37"/>
      <point x="373" y="59" type="curve"/>
      <point x="373" y="-164" type="line"/>
      <point x="328" y="-164" type="line" smooth="yes"/>
      <point x="314" y="-164"/>
      <point x="287" y="-164"/>
      <point x="287" y="-193" type="curve" smooth="yes"/>
      <point x="287" y="-222"/>
      <point x="314" y="-222"/>
      <point x="328" y="-222" type="curve" smooth="yes"/>
      <point x="483" y="-222" type="line" smooth="yes"/>
      <point x="497" y="-222"/>
      <point x="524" y="-222"/>
      <point x="524" y="-193" type="curve" smooth="yes"/>
      <point x="524" y="-164"/>
      <point x="497" y="-164"/>
      <point x="483" y="-164" type="curve" smooth="yes"/>
      <point x="438" y="-164" type="line"/>
    </contour>
    <contour>
      <point x="373" y="191" type="line" smooth="yes"/>
      <point x="373" y="135"/>
      <point x="324" y="52"/>
      <point x="244" y="52" type="curve" smooth="yes"/>
      <point x="168" y="52"/>
      <point x="106" y="125"/>
      <point x="106" y="215" type="curve" smooth="yes"/>
      <point x="106" y="309"/>
      <point x="176" y="379"/>
      <point x="254" y="379" type="curve" smooth="yes"/>
      <point x="330" y="379"/>
      <point x="373" y="298"/>
      <point x="373" y="236" type="curve" smooth="yes"/>
    </contour>
  </outline>
</glyph>
<glyph name="r" format="2">
  <advance width="514"/>
  <unicode hex="0072"/>
  <outline>
    <contour>
      <point x="216" y="189" type="line" smooth="yes"/>
      <point x="216" y="308"/>
      <point x="300" y="379"/>
      <point x="385" y="379" type="curve" smooth="yes"/>
      <point x="390" y="379"/>
      <point x="396" y="379"/>
      <point x="401" y="378" type="curve"/>
      <point x="404" y="342"/>
      <point x="432" y="339"/>
      <point x="439" y="339" type="curve" smooth="yes"/>
      <point x="462" y="339"/>
      <point x="478" y="356"/>
      <point x="478" y="378" type="curve" smooth="yes"/>
      <point x="478" y="421"/>
      <point x="436" y="437"/>
      <point x="386" y="437" type="curve" smooth="yes"/>
      <point x="319" y="437"/>
      <point x="262" y="407"/>
      <point x="216" y="351" type="curve"/>
      <point x="216" y="390" type="line" smooth="yes"/>
      <point x="216" y="421"/>
      <point x="210" y="431"/>
      <point x="176" y="431" type="curve" smooth="yes"/>
      <point x="75" y="431" type="line" smooth="yes"/>
      <point x="61" y="431"/>
      <point x="35" y="431"/>
      <point x="35" y="402" type="curve" smooth="yes"/>
      <point x="35" y="373"/>
      <point x="61" y="373"/>
      <point x="75" y="373" type="curve" smooth="yes"/>
      <point x="151" y="373" type="line"/>
      <point x="151" y="58" type="line"/>
      <point x="75" y="58" type="line" smooth="yes"/>
      <point x="61" y="58"/>
      <point x="35" y="58"/>
      <point x="35" y="29" type="curve" smooth="yes"/>
      <point x="35" y="0"/>
      <point x="61" y="0"/>
      <point x="75" y="0" type="curve" smooth="yes"/>
      <point x="321" y="0" type="line" smooth="yes"/>
      <point x="335" y="0"/>
      <point x="361" y="0"/>
      <point x="361" y="29" type="curve" smooth="yes"/>
      <point x="361" y="58"/>
      <point x="335" y="58"/>
      <point x="321" y="58" type="curve" smooth="yes"/>
      <point x="216" y="58" type="line"/>
    </contour>
  </outline>
</glyph>
<glyph name="s" format="2">
  <advance width="514"/>
  <unicode hex="0073"/>
  <outline>
    <contour>
      <point x="420" y="402" type="line" smooth="yes"/>
      <point x="420" y="418"/>
      <point x="420" y="440"/>
      <point x="392" y="440" type="curve" smooth="yes"/>
      <point x="368" y="440"/>
      <point x="362" y="417"/>
      <point x="362" y="416" type="curve"/>
      <point x="322" y="440"/>
      <point x="276" y="440"/>
      <point x="256" y="440" type="curve" smooth="yes"/>
      <point x="93" y="440"/>
      <point x="71" y="357"/>
      <point x="71" y="323" type="curve" smooth="yes"/>
      <point x="71" y="282"/>
      <point x="95" y="254"/>
      <point x="129" y="235" type="curve" smooth="yes"/>
      <point x="161" y="217"/>
      <point x="190" y="212"/>
      <point x="272" y="199" type="curve" smooth="yes"/>
      <point x="311" y="192"/>
      <point x="391" y="179"/>
      <point x="391" y="124" type="curve" smooth="yes"/>
      <point x="391" y="87"/>
      <point x="357" y="52"/>
      <point x="264" y="52" type="curve" smooth="yes"/>
      <point x="200" y="52"/>
      <point x="158" y="77"/>
      <point x="137" y="149" type="curve"/>
      <point x="132" y="163"/>
      <point x="129" y="174"/>
      <point x="104" y="174" type="curve" smooth="yes"/>
      <point x="71" y="174"/>
      <point x="71" y="155"/>
      <point x="71" y="135" type="curve" smooth="yes"/>
      <point x="71" y="32" type="line" smooth="yes"/>
      <point x="71" y="16"/>
      <point x="71" y="-6"/>
      <point x="99" y="-6" type="curve" smooth="yes"/>
      <point x="111" y="-6"/>
      <point x="120" y="-6"/>
      <point x="135" y="35" type="curve"/>
      <point x="181" y="-3"/>
      <point x="233" y="-6"/>
      <point x="264" y="-6" type="curve" smooth="yes"/>
      <point x="449" y="-6"/>
      <point x="449" y="114"/>
      <point x="449" y="124" type="curve" smooth="yes"/>
      <point x="449" y="228"/>
      <point x="325" y="249"/>
      <point x="277" y="256" type="curve" smooth="yes"/>
      <point x="189" y="271"/>
      <point x="129" y="281"/>
      <point x="129" y="323" type="curve" smooth="yes"/>
      <point x="129" y="350"/>
      <point x="160" y="382"/>
      <point x="254" y="382" type="curve" smooth="yes"/>
      <point x="349" y="382"/>
      <point x="353" y="337"/>
      <point x="355" y="311" type="curve" smooth="yes"/>
      <point x="357" y="291"/>
      <point x="375" y="288"/>
      <point x="387" y="288" type="curve" smooth="yes"/>
      <point x="420" y="288"/>
      <point x="420" y="306"/>
      <point x="420" y="326" type="curve" smooth="yes"/>
    </contour>
  </outline>
</glyph>
<glyph name="u" format="2">
  <advance width="514"/>
  <unicode hex="0075"/>
  <outline>
    <contour>
      <point x="418" y="390" type="line" smooth="yes"/>
      <point x="418" y="421"/>
      <point x="412" y="431"/>
      <point x="378" y="431" type="curve" smooth="yes"/>
      <point x="312" y="431" type="line" smooth="yes"/>
      <point x="298" y="431"/>
      <point x="272" y="431"/>
      <point x="272" y="402" type="curve" smooth="yes"/>
      <point x="272" y="373"/>
      <point x="298" y="373"/>
      <point x="312" y="373" type="curve" smooth="yes"/>
      <point x="353" y="373" type="line"/>
      <point x="353" y="156" type="line" smooth="yes"/>
      <point x="353" y="74"/>
      <point x="285" y="52"/>
      <point x="240" y="52" type="curve" smooth="yes"/>
      <point x="161" y="52"/>
      <point x="161" y="88"/>
      <point x="161" y="119" type="curve" smooth="yes"/>
      <point x="161" y="390" type="line" smooth="yes"/>
      <point x="161" y="421"/>
      <point x="155" y="431"/>
      <point x="121" y="431" type="curve" smooth="yes"/>
      <point x="55" y="431" type="line" smooth="yes"/>
      <point x="41" y="431"/>
      <point x="15" y="431"/>
      <point x="15" y="402" type="curve" smooth="yes"/>
      <point x="15" y="373"/>
      <point x="41" y="373"/>
      <point x="55" y="373" type="curve" smooth="yes"/>
      <point x="96" y="373" type="line"/>
      <point x="96" y="114" type="line" smooth="yes"/>
      <point x="96" y="22"/>
      <point x="156" y="-6"/>
      <point x="233" y="-6" type="curve" smooth="yes"/>
      <point x="294" y="-6"/>
      <point x="332" y="19"/>
      <point x="352" y="36" type="curve"/>
      <point x="352" y="0"/>
      <point x="376" y="0"/>
      <point x="393" y="0" type="curve" smooth="yes"/>
      <point x="459" y="0" type="line" smooth="yes"/>
      <point x="473" y="0"/>
      <point x="499" y="0"/>
      <point x="499" y="29" type="curve" smooth="yes"/>
      <point x="499" y="58"/>
      <point x="473" y="58"/>
      <point x="459" y="58" type="curve" smooth="yes"/>
      <point x="418" y="58" type="line"/>
    </contour>
  </outline>
</glyph>
<glyph name="z" format="2">
  <advance width="514"/>
  <unicode hex="007A"/>
  <outline>
    <contour>
      <point x="447" y="365" type="line" smooth="yes"/>
      <point x="459" y="376"/>
      <point x="463" y="380"/>
      <point x="463" y="398" type="curve" smooth="yes"/>
      <point x="463" y="431"/>
      <point x="441" y="431"/>
      <point x="422" y="431" type="curve" smooth="yes"/>
      <point x="89" y="431" type="line" smooth="yes"/>
      <point x="56" y="431"/>
      <point x="48" y="423"/>
      <point x="48" y="390" type="curve" smooth="yes"/>
      <point x="48" y="350" type="line" smooth="yes"/>
      <point x="48" y="332"/>
      <point x="48" y="309"/>
      <point x="80" y="309" type="curve" smooth="yes"/>
      <point x="113" y="309"/>
      <point x="113" y="331"/>
      <point x="113" y="350" type="curve" smooth="yes"/>
      <point x="113" y="373" type="line"/>
      <point x="366" y="373" type="line"/>
      <point x="48" y="66" type="line" smooth="yes"/>
      <point x="36" y="55"/>
      <point x="32" y="51"/>
      <point x="32" y="33" type="curve" smooth="yes"/>
      <point x="32" y="0"/>
      <point x="54" y="0"/>
      <point x="73" y="0" type="curve" smooth="yes"/>
      <point x="426" y="0" type="line" smooth="yes"/>
      <point x="459" y="0"/>
      <point x="466" y="9"/>
      <point x="466" y="41" type="curve" smooth="yes"/>
      <point x="466" y="92" type="line" smooth="yes"/>
      <point x="466" y="110"/>
      <point x="466" y="133"/>
      <point x="434" y="133" type="curve" smooth="yes"/>
      <point x="401" y="133"/>
      <point x="401" y="111"/>
      <point x="401" y="92" type="curve" smooth="yes"/>
      <point x="401" y="58" type="line"/>
      <point x="129" y="58" type="line"/>
    </contour>
  </outline>
</glyph>
<glyph name="bar" format="2">
  <advance width="514"/>
  <unicode hex="007C"/>
  <outline>
    <contour>
      <point x="290" y="649" type="line" smooth="yes"/>
      <point x="290" y="662"/>
      <point x="290" y="694"/>
      <point x="258" y="694" type="curve" smooth="yes"/>
      <point x="225" y="694"/>
      <point x="225" y="663"/>
      <point x="225" y="649" type="curve" smooth="yes"/>
      <point x="225" y="-38" type="line" smooth="yes"/>
      <point x="225" y="-51"/>
      <point x="225" y="-83"/>
      <point x="257" y="-83" type="curve" smooth="yes"/>
      <point x="290" y="-83"/>
      <point x="290" y="-52"/>
      <point x="290" y="-38" type="curve" smooth="yes"/>
    </contour>
  </outline>
</glyph>
<glyph name="dieresis" format="2">
  <advance width="514"/>
  <unicode hex="00A8"/>
  <outline>
    <contour>
      <point x="202" y="567" type="curve" smooth="yes"/>
      <point x="202" y="592"/>
      <point x="182" y="612"/>
      <point x="157" y="612" type="curve" smooth="yes"/>
      <point x="132" y="612"/>
      <point x="112" y="591"/>
      <point x="112" y="567" type="curve" smooth="yes"/>
      <point x="112" y="543"/>
      <point x="132" y="522"/>
      <point x="157" y="522" type="curve" smooth="yes"/>
      <point x="182" y="522"/>
      <point x="202" y="542"/>
    </contour>
    <contour>
      <point x="402" y="567" type="curve" smooth="yes"/>
      <point x="402" y="591"/>
      <point x="382" y="612"/>
      <point x="357" y="612" type="curve" smooth="yes"/>
      <point x="332" y="612"/>
      <point x="312" y="592"/>
      <point x="312" y="567" type="curve" smooth="yes"/>
      <point x="312" y="542"/>
      <point x="332" y="522"/>
      <point x="357" y="522" type="curve" smooth="yes"/>
      <point x="382" y="522"/>
      <point x="402" y="543"/>
    </contour>
  </outline>
</glyph>
<glyph name="Theta" format="2">
  <advance width="514"/>
  <unicode hex="0398"/>
  <outline>
    <contour>
      <point x="459" y="305" type="curve" smooth="yes"/>
      <point x="459" y="596"/>
      <point x="438" y="623"/>
      <point x="257" y="623" type="curve" smooth="yes"/>
      <point x="76" y="623"/>
      <point x="55" y="596"/>
      <point x="55" y="306" type="curve" smooth="yes"/>
      <point x="55" y="15"/>
      <point x="76" y="-12"/>
      <point x="257" y="-12" type="curve" smooth="yes"/>
      <point x="438" y="-12"/>
      <point x="459" y="15"/>
    </contour>
    <contour>
      <point x="257" y="46" type="curve" smooth="yes"/>
      <point x="162" y="46"/>
      <point x="141" y="69"/>
      <point x="130" y="127" type="curve" smooth="yes"/>
      <point x="120" y="176"/>
      <point x="120" y="252"/>
      <point x="120" y="305" type="curve" smooth="yes"/>
      <point x="120" y="365"/>
      <point x="120" y="436"/>
      <point x="130" y="485" type="curve" smooth="yes"/>
      <point x="141" y="543"/>
      <point x="163" y="565"/>
      <point x="257" y="565" type="curve" smooth="yes"/>
      <point x="352" y="565"/>
      <point x="373" y="542"/>
      <point x="384" y="484" type="curve" smooth="yes"/>
      <point x="394" y="435"/>
      <point x="394" y="359"/>
      <point x="394" y="306" type="curve" smooth="yes"/>
      <point x="394" y="246"/>
      <point x="394" y="175"/>
      <point x="384" y="126" type="curve" smooth="yes"/>
      <point x="373" y="68"/>
      <point x="351" y="46"/>
    </contour>
    <contour>
      <point x="356" y="328" type="line" smooth="yes"/>
      <point x="356" y="345"/>
      <point x="356" y="369"/>
      <point x="323" y="369" type="curve" smooth="yes"/>
      <point x="293" y="369"/>
      <point x="291" y="345"/>
      <point x="291" y="338" type="curve"/>
      <point x="223" y="338" type="line"/>
      <point x="223" y="345"/>
      <point x="221" y="369"/>
      <point x="191" y="369" type="curve" smooth="yes"/>
      <point x="158" y="369"/>
      <point x="158" y="345"/>
      <point x="158" y="328" type="curve" smooth="yes"/>
      <point x="158" y="283" type="line" smooth="yes"/>
      <point x="158" y="266"/>
      <point x="158" y="242"/>
      <point x="191" y="242" type="curve" smooth="yes"/>
      <point x="221" y="242"/>
      <point x="223" y="266"/>
      <point x="223" y="273" type="curve"/>
      <point x="291" y="273" type="line"/>
      <point x="291" y="266"/>
      <point x="293" y="242"/>
      <point x="323" y="242" type="curve" smooth="yes"/>
      <point x="356" y="242"/>
      <point x="356" y="266"/>
      <point x="356" y="283" type="curve" smooth="yes"/>
    </contour>
  </outline>
</glyph>
<glyph name="Lambda" format="2">
  <advance width="514"/>
  <unicode hex="039B"/>
  <outline>
    <contour>
      <point x="309" y="588" type="line" smooth="yes"/>
      <point x="300" y="625"/>
      <point x="281" y="625"/>
      <point x="257" y="625" type="curve" smooth="yes"/>
      <point x="220" y="625"/>
      <point x="213" y="617"/>
      <point x="206" y="588" type="curve" smooth="yes"/>
      <point x="82" y="58" type="line"/>
      <point x="51" y="58"/>
      <point x="29" y="58"/>
      <point x="29" y="29" type="curve" smooth="yes"/>
      <point x="29" y="0"/>
      <point x="55" y="0"/>
      <point x="69" y="0" type="curve" smooth="yes"/>
      <point x="169" y="0" type="line" smooth="yes"/>
      <point x="183" y="0"/>
      <point x="209" y="0"/>
      <point x="209" y="29" type="curve" smooth="yes"/>
      <point x="209" y="58"/>
      <point x="183" y="58"/>
      <point x="169" y="58" type="curve" smooth="yes"/>
      <point x="149" y="58" type="line"/>
      <point x="225" y="390" type="line" smooth="yes"/>
      <point x="230" y="410"/>
      <point x="252" y="510"/>
      <point x="257" y="542" type="curve"/>
      <point x="258" y="542" type="line"/>
      <point x="263" y="505"/>
      <point x="272" y="463"/>
      <point x="282" y="421" type="curve" smooth="yes"/>
      <point x="365" y="58" type="line"/>
      <point x="345" y="58" type="line" smooth="yes"/>
      <point x="331" y="58"/>
      <point x="305" y="58"/>
      <point x="305" y="29" type="curve" smooth="yes"/>
      <point x="305" y="0"/>
      <point x="331" y="0"/>
      <point x="345" y="0" type="curve" smooth="yes"/>
      <point x="445" y="0" type="line" smooth="yes"/>
      <point x="459" y="0"/>
      <point x="485" y="0"/>
      <point x="485" y="29" type="curve" smooth="yes"/>
      <point x="485" y="58"/>
      <point x="462" y="58"/>
      <point x="432" y="58" type="curve"/>
    </contour>
  </outline>
</glyph>
<glyph name="Sigma" format="2">
  <advance width="514"/>
  <unicode hex="03A3"/>
  <outline>
    <contour>
      <point x="257" y="284" type="line" smooth="yes"/>
      <point x="264" y="296"/>
      <point x="264" y="300"/>
      <point x="264" y="313" type="curve"/>
      <point x="127" y="553" type="line"/>
      <point x="409" y="553" type="line"/>
      <point x="409" y="504" type="line" smooth="yes"/>
      <point x="409" y="486"/>
      <point x="409" y="463"/>
      <point x="441" y="463" type="curve" smooth="yes"/>
      <point x="474" y="463"/>
      <point x="474" y="485"/>
      <point x="474" y="504" type="curve" smooth="yes"/>
      <point x="474" y="570" type="line" smooth="yes"/>
      <point x="474" y="601"/>
      <point x="468" y="611"/>
      <point x="434" y="611" type="curve" smooth="yes"/>
      <point x="81" y="611" type="line" smooth="yes"/>
      <point x="67" y="611"/>
      <point x="40" y="611"/>
      <point x="40" y="582" type="curve" smooth="yes"/>
      <point x="40" y="576"/>
      <point x="41" y="572"/>
      <point x="48" y="559" type="curve" smooth="yes"/>
      <point x="194" y="305" type="line"/>
      <point x="49" y="50" type="line"/>
      <point x="40" y="36"/>
      <point x="40" y="34"/>
      <point x="40" y="28" type="curve" smooth="yes"/>
      <point x="40" y="0"/>
      <point x="68" y="0"/>
      <point x="81" y="0" type="curve" smooth="yes"/>
      <point x="434" y="0" type="line" smooth="yes"/>
      <point x="467" y="0"/>
      <point x="474" y="9"/>
      <point x="474" y="41" type="curve" smooth="yes"/>
      <point x="474" y="109" type="line" smooth="yes"/>
      <point x="474" y="127"/>
      <point x="474" y="150"/>
      <point x="442" y="150" type="curve" smooth="yes"/>
      <point x="409" y="150"/>
      <point x="409" y="128"/>
      <point x="409" y="109" type="curve" smooth="yes"/>
      <point x="409" y="60" type="line"/>
      <point x="129" y="60" type="line"/>
    </contour>
  </outline>
</glyph>
<glyph name="Upsilon" format="2">
  <advance width="514"/>
  <unicode hex="03A5"/>
  <outline>
    <contour>
      <point x="290" y="357" type="line" smooth="yes"/>
      <point x="290" y="409"/>
      <point x="290" y="574"/>
      <point x="364" y="574" type="curve" smooth="yes"/>
      <point x="410" y="574"/>
      <point x="412" y="508"/>
      <point x="412" y="496" type="curve" smooth="yes"/>
      <point x="412" y="482"/>
      <point x="413" y="461"/>
      <point x="445" y="461" type="curve" smooth="yes"/>
      <point x="462" y="461"/>
      <point x="477" y="468"/>
      <point x="477" y="493" type="curve" smooth="yes"/>
      <point x="477" y="548"/>
      <point x="438" y="623"/>
      <point x="365" y="623" type="curve" smooth="yes"/>
      <point x="306" y="623"/>
      <point x="269" y="577"/>
      <point x="258" y="478" type="curve"/>
      <point x="257" y="478" type="line"/>
      <point x="244" y="580"/>
      <point x="208" y="623"/>
      <point x="149" y="623" type="curve" smooth="yes"/>
      <point x="76" y="623"/>
      <point x="37" y="548"/>
      <point x="37" y="493" type="curve" smooth="yes"/>
      <point x="37" y="469"/>
      <point x="51" y="461"/>
      <point x="69" y="461" type="curve" smooth="yes"/>
      <point x="78" y="461"/>
      <point x="101" y="461"/>
      <point x="102" y="492" type="curve" smooth="yes"/>
      <point x="103" y="513"/>
      <point x="105" y="574"/>
      <point x="150" y="574" type="curve" smooth="yes"/>
      <point x="196" y="574"/>
      <point x="210" y="516"/>
      <point x="214" y="490" type="curve" smooth="yes"/>
      <point x="223" y="446"/>
      <point x="225" y="402"/>
      <point x="225" y="357" type="curve" smooth="yes"/>
      <point x="225" y="58" type="line"/>
      <point x="193" y="58" type="line" smooth="yes"/>
      <point x="179" y="58"/>
      <point x="152" y="58"/>
      <point x="152" y="29" type="curve" smooth="yes"/>
      <point x="152" y="0"/>
      <point x="179" y="0"/>
      <point x="193" y="0" type="curve" smooth="yes"/>
      <point x="322" y="0" type="line" smooth="yes"/>
      <point x="336" y="0"/>
      <point x="363" y="0"/>
      <point x="363" y="29" type="curve" smooth="yes"/>
      <point x="363" y="58"/>
      <point x="336" y="58"/>
      <point x="322" y="58" type="curve" smooth="yes"/>
      <point x="290" y="58" type="line"/>
    </contour>
  </outline>
</glyph>
<glyph name="Phi" format="2">
  <advance width="514"/>
  <unicode hex="03A6"/>
  <outline>
    <contour>
      <point x="187" y="611" type="line" smooth="yes"/>
      <point x="173" y="611"/>
      <point x="147" y="611"/>
      <point x="147" y="582" type="curve" smooth="yes"/>
      <point x="147" y="553"/>
      <point x="173" y="553"/>
      <point x="187" y="553" type="curve" smooth="yes"/>
      <point x="225" y="553" type="line"/>
      <point x="225" y="459" type="line"/>
      <point x="107" y="447"/>
      <point x="40" y="374"/>
      <point x="40" y="306" type="curve" smooth="yes"/>
      <point x="40" y="234"/>
      <point x="111" y="164"/>
      <point x="225" y="152" type="curve"/>
      <point x="225" y="58" type="line"/>
      <point x="187" y="58" type="line" smooth="yes"/>
      <point x="173" y="58"/>
      <point x="147" y="58"/>
      <point x="147" y="29" type="curve" smooth="yes"/>
      <point x="147" y="0"/>
      <point x="173" y="0"/>
      <point x="187" y="0" type="curve" smooth="yes"/>
      <point x="328" y="0" type="line" smooth="yes"/>
      <point x="342" y="0"/>
      <point x="368" y="0"/>
      <point x="368" y="29" type="curve" smooth="yes"/>
      <point x="368" y="58"/>
      <point x="342" y="58"/>
      <point x="328" y="58" type="curve" smooth="yes"/>
      <point x="290" y="58" type="line"/>
      <point x="290" y="152" type="line"/>
      <point x="409" y="165"/>
      <point x="474" y="239"/>
      <point x="474" y="305" type="curve" smooth="yes"/>
      <point x="474" y="376"/>
      <point x="406" y="446"/>
      <point x="290" y="459" type="curve"/>
      <point x="290" y="553" type="line"/>
      <point x="328" y="553" type="line" smooth="yes"/>
      <point x="342" y="553"/>
      <point x="368" y="553"/>
      <point x="368" y="582" type="curve" smooth="yes"/>
      <point x="368" y="611"/>
      <point x="342" y="611"/>
      <point x="328" y="611" type="curve" smooth="yes"/>
    </contour>
    <contour>
      <point x="225" y="210" type="line"/>
      <point x="161" y="218"/>
      <point x="105" y="257"/>
      <point x="105" y="305" type="curve" smooth="yes"/>
      <point x="105" y="358"/>
      <point x="166" y="393"/>
      <point x="225" y="401" type="curve"/>
    </contour>
    <contour>
      <point x="290" y="401" type="line"/>
      <point x="350" y="393"/>
      <point x="409" y="356"/>
      <point x="409" y="306" type="curve" smooth="yes"/>
      <point x="409" y="252"/>
      <point x="346" y="218"/>
      <point x="290" y="210" type="curve"/>
    </contour>
  </outline>
</glyph>
<glyph name="Psi" format="2">
  <advance width="514"/>
  <unicode hex="03A8"/>
  <outline>
    <contour>
      <point x="290" y="553" type="line"/>
      <point x="322" y="553" type="line" smooth="yes"/>
      <point x="336" y="553"/>
      <point x="363" y="553"/>
      <point x="363" y="582" type="curve" smooth="yes"/>
      <point x="363" y="611"/>
      <point x="336" y="611"/>
      <point x="322" y="611" type="curve" smooth="yes"/>
      <point x="193" y="611" type="line" smooth="yes"/>
      <point x="179" y="611"/>
      <point x="152" y="611"/>
      <point x="152" y="582" type="curve" smooth="yes"/>
      <point x="152" y="553"/>
      <point x="179" y="553"/>
      <point x="193" y="553" type="curve" smooth="yes"/>
      <point x="225" y="553" type="line"/>
      <point x="225" y="213" type="line"/>
      <point x="146" y="235"/>
      <point x="143" y="330"/>
      <point x="143" y="371" type="curve" smooth="yes"/>
      <point x="143" y="407"/>
      <point x="140" y="484"/>
      <point x="71" y="484" type="curve" smooth="yes"/>
      <point x="43" y="484"/>
      <point x="37" y="468"/>
      <point x="37" y="455" type="curve" smooth="yes"/>
      <point x="37" y="432"/>
      <point x="56" y="427"/>
      <point x="63" y="426" type="curve"/>
      <point x="77" y="423"/>
      <point x="78" y="389"/>
      <point x="78" y="359" type="curve" smooth="yes"/>
      <point x="79" y="275"/>
      <point x="109" y="174"/>
      <point x="225" y="153" type="curve"/>
      <point x="225" y="58" type="line"/>
      <point x="193" y="58" type="line" smooth="yes"/>
      <point x="179" y="58"/>
      <point x="152" y="58"/>
      <point x="152" y="29" type="curve" smooth="yes"/>
      <point x="152" y="0"/>
      <point x="179" y="0"/>
      <point x="193" y="0" type="curve" smooth="yes"/>
      <point x="322" y="0" type="line" smooth="yes"/>
      <point x="336" y="0"/>
      <point x="363" y="0"/>
      <point x="363" y="29" type="curve" smooth="yes"/>
      <point x="363" y="58"/>
      <point x="336" y="58"/>
      <point x="322" y="58" type="curve" smooth="yes"/>
      <point x="290" y="58" type="line"/>
      <point x="290" y="153" type="line"/>
      <point x="394" y="171"/>
      <point x="435" y="257"/>
      <point x="436" y="367" type="curve" smooth="yes"/>
      <point x="436" y="385"/>
      <point x="436" y="423"/>
      <point x="451" y="426" type="curve"/>
      <point x="458" y="427"/>
      <point x="477" y="432"/>
      <point x="477" y="455" type="curve" smooth="yes"/>
      <point x="477" y="482"/>
      <point x="454" y="484"/>
      <point x="443" y="484" type="curve" smooth="yes"/>
      <point x="372" y="484"/>
      <point x="371" y="403"/>
      <point x="371" y="369" type="curve" smooth="yes"/>
      <point x="371" y="322"/>
      <point x="366" y="235"/>
      <point x="290" y="213" type="curve"/>
    </contour>
  </outline>
</glyph>
<glyph name="Omega" format="2">
  <advance width="514"/>
  <unicode hex="2126"/>
  <outline>
    <contour>
      <point x="482" y="62" type="line" smooth="yes"/>
      <point x="482" y="76"/>
      <point x="482" y="103"/>
      <point x="454" y="103" type="curve" smooth="yes"/>
      <point x="426" y="103"/>
      <point x="426" y="77"/>
      <point x="426" y="58" type="curve"/>
      <point x="364" y="58" type="line"/>
      <point x="370" y="103"/>
      <point x="389" y="149"/>
      <point x="418" y="211" type="curve" smooth="yes"/>
      <point x="455" y="290"/>
      <point x="474" y="347"/>
      <point x="474" y="406" type="curve" smooth="yes"/>
      <point x="474" y="531"/>
      <point x="373" y="623"/>
      <point x="257" y="623" type="curve" smooth="yes"/>
      <point x="141" y="623"/>
      <point x="40" y="530"/>
      <point x="40" y="406" type="curve" smooth="yes"/>
      <point x="40" y="334"/>
      <point x="71" y="267"/>
      <point x="99" y="204" type="curve" smooth="yes"/>
      <point x="122" y="156"/>
      <point x="144" y="106"/>
      <point x="150" y="58" type="curve"/>
      <point x="88" y="58" type="line"/>
      <point x="88" y="77"/>
      <point x="88" y="103"/>
      <point x="60" y="103" type="curve" smooth="yes"/>
      <point x="32" y="103"/>
      <point x="32" y="76"/>
      <point x="32" y="62" type="curve" smooth="yes"/>
      <point x="32" y="41" type="line" smooth="yes"/>
      <point x="32" y="8"/>
      <point x="40" y="0"/>
      <point x="73" y="0" type="curve" smooth="yes"/>
      <point x="170" y="0" type="line" smooth="yes"/>
      <point x="189" y="0"/>
      <point x="210" y="0"/>
      <point x="210" y="35" type="curve" smooth="yes"/>
      <point x="210" y="101"/>
      <point x="180" y="171"/>
      <point x="149" y="242" type="curve" smooth="yes"/>
      <point x="129" y="291"/>
      <point x="105" y="350"/>
      <point x="105" y="406" type="curve" smooth="yes"/>
      <point x="105" y="498"/>
      <point x="176" y="565"/>
      <point x="257" y="565" type="curve" smooth="yes"/>
      <point x="338" y="565"/>
      <point x="409" y="498"/>
      <point x="409" y="406" type="curve" smooth="yes"/>
      <point x="409" y="350"/>
      <point x="386" y="292"/>
      <point x="365" y="242" type="curve" smooth="yes"/>
      <point x="334" y="172"/>
      <point x="304" y="101"/>
      <point x="304" y="35" type="curve" smooth="yes"/>
      <point x="304" y="0"/>
      <point x="326" y="0"/>
      <point x="345" y="0" type="curve" smooth="yes"/>
      <point x="442" y="0" type="line" smooth="yes"/>
      <point x="475" y="0"/>
      <point x="482" y="9"/>
      <point x="482" y="41" type="curve" smooth="yes"/>
    </contour>
  </outline>
</glyph>
<glyph name="visiblespace" format="2">
  <advance width="514"/>
  <outline>
    <contour>
      <point x="471" y="207" type="line" smooth="yes"/>
      <point x="471" y="224"/>
      <point x="471" y="240"/>
      <point x="450" y="240" type="curve" smooth="yes"/>
      <point x="430" y="240"/>
      <point x="430" y="223"/>
      <point x="430" y="207" type="curve" smooth="yes"/>
      <point x="430" y="-90" type="line"/>
      <point x="84" y="-90" type="line"/>
      <point x="84" y="207" type="line" smooth="yes"/>
      <point x="84" y="224"/>
      <point x="84" y="240"/>
      <point x="63" y="240" type="curve" smooth="yes"/>
      <point x="43" y="240"/>
      <point x="43" y="223"/>
      <point x="43" y="207" type="curve" smooth="yes"/>
      <point x="43" y="-97" type="line" smooth="yes"/>
      <point x="43" y="-126"/>
      <point x="47" y="-131"/>
      <point x="77" y="-131" type="curve" smooth="yes"/>
      <point x="437" y="-131" type="line" smooth="yes"/>
      <point x="466" y="-131"/>
      <point x="471" y="-127"/>
      <point x="471" y="-97" type="curve" smooth="yes"/>
    </contour>
  </outline>
</glyph>
